Coordinates
version=1
nRows=13
nColumns=36
inDegrees=yes

Units are S.I. units (second, meters, Newtons, ...)
If the header above contains a line with 'inDegrees', this indicates whether rotational values are in degrees (yes) or radians (no).

endheader
time	pelvis_tilt	pelvis_list	pelvis_rotation	pelvis_tx	pelvis_ty	pelvis_tz	hip_flexion_r	hip_adduction_r	hip_rotation_r	knee_angle_r	knee_angle_r_beta	ankle_angle_r	subtalar_angle_r	mtp_angle_r	hip_flexion_l	hip_adduction_l	hip_rotation_l	knee_angle_l	knee_angle_l_beta	ankle_angle_l	subtalar_angle_l	mtp_angle_l	lumbar_extension	lumbar_bending	lumbar_rotation	arm_flex_r	arm_add_r	arm_rot_r	elbow_flex_r	pro_sup_r	arm_flex_l	arm_add_l	arm_rot_l	elbow_flex_l	pro_sup_l
      5.09166670	     -8.94985497	     -0.13165224	      2.28328142	      0.35014187	      1.07511312	     -0.07121541	     10.97586774	     -2.52915557	     -4.03576146	     10.74236443	      0.18748963	      9.04495440	     -8.33896411	     -7.49999987	     10.25855191	     -2.63924785	     -2.02902331	     11.58626305	      0.20221844	     10.29993676	     -1.33816553	     -7.49999987	     -5.59440302	     -0.71335585	      3.40138899	     -8.89056013	    -10.49559257	      5.19192831	     41.77055013	     79.61603100	     -9.28494612	    -11.33738978	      5.81505198	     47.25843670	     90.40914576
      5.09583330	     -8.68325608	     -0.12580539	      2.39596959	      0.35177966	      1.07704494	     -0.07039721	     10.44515200	     -2.48891134	     -4.22390533	     10.31813843	      0.18008549	      8.75721885	     -8.17477918	     -7.49999987	      9.86439148	     -2.65651306	     -2.02735420	     11.36966647	      0.19843811	     10.04256321	     -1.11336413	     -7.49999987	     -5.88110007	     -0.72787093	      3.30364807	     -8.71481512	    -10.36028080	      5.14264509	     41.08264466	     79.57821160	     -9.11924847	    -11.31016923	      5.79328800	     46.54697320	     90.35881794
      5.10000000	     -8.48109900	     -0.08717984	      2.48501895	      0.35155499	      1.07872675	     -0.07055263	     10.05861558	     -2.50930315	     -4.42960583	      9.99732514	      0.17448624	      8.59294772	     -7.95509384	     -7.49999987	      9.59423670	     -2.61965714	     -2.02290485	     11.22481567	      0.19590999	      9.77606129	     -1.02918416	     -7.49999987	     -6.15140843	     -0.76797502	      3.25485691	     -8.59296441	    -10.28836518	      5.13925187	     40.63485412	     79.66925152	     -8.96965576	    -11.33085997	      5.81599707	     46.07937022	     90.27625121
      5.10416670	     -8.27877333	     -0.05700021	      2.54711554	      0.35055419	      1.07771920	     -0.07126822	      9.70144465	     -2.52595505	     -4.48098940	      9.70222374	      0.16933575	      8.34078835	     -7.90654042	     -7.49999987	      9.33804293	     -2.57654021	     -1.99889796	     11.08756513	      0.19351452	      9.51554138	     -0.99290553	     -7.49999987	     -6.45965060	     -0.78945139	      3.22528581	     -8.54141580	    -10.25879248	      5.09405822	     40.40614979	     78.88449513	     -8.90009940	    -11.34051432	      5.74823841	     45.86777451	     89.38855064
      5.10833330	     -8.10200299	     -0.03887667	      2.64004491	      0.35015119	      1.07832807	     -0.07012976	      9.42882315	     -2.53654975	     -4.68550945	      9.50686246	      0.16592605	      8.29917587	     -7.53621095	     -7.49999987	      9.14329186	     -2.55953808	     -1.98196087	     10.99898567	      0.19196851	      9.38527072	     -0.83081901	     -7.49999987	     -6.70860621	     -0.83136803	      3.13227504	     -8.39571650	    -10.24032382	      5.28664290	     40.00538499	     78.72106047	     -8.77336945	    -11.43528593	      5.94862389	     45.45716545	     88.94877833
      5.11250000	     -7.96292382	     -0.03494115	      2.72193302	      0.35011291	      1.07675214	     -0.07094229	      9.23627704	     -2.55722199	     -4.85052115	      9.41216743	      0.16427331	      8.20918093	     -7.31250856	     -7.49999987	      9.01239720	     -2.54634603	     -1.91189117	     10.94802381	      0.19107906	      9.25372155	     -0.77598012	     -7.49999987	     -6.92144878	     -0.83550406	      3.04750745	     -8.34286874	    -10.25564574	      5.23628208	     39.75698522	     78.63095731	     -8.71492249	    -11.45701230	      5.91039857	     45.18430780	     88.42307049
      5.11666670	     -7.97350221	     -0.01808133	      2.74884174	      0.34897008	      1.08093757	     -0.07075891	      9.26551110	     -2.56988804	     -4.85729507	      9.38334732	      0.16377031	      8.14633584	     -7.29598634	     -7.49999987	      9.06740102	     -2.53246552	     -1.91770856	     10.93646003	      0.19087724	      9.18011731	     -0.74228426	     -7.49999987	     -7.03246747	     -0.85436143	      3.04020832	     -8.38136531	    -10.24949743	      5.23530927	     39.72269405	     78.65851649	     -8.74753898	    -11.49144548	      5.89648732	     45.13414883	     88.45126827
      5.12083330	     -7.68588452	      0.00943082	      2.81830916	      0.34974959	      1.07743557	     -0.07078104	      8.88371494	     -2.58831311	     -4.95322464	      9.20466718	      0.16065175	      7.94370916	     -7.34874810	     -7.49999987	      8.75670982	     -2.52678651	     -1.94821342	     10.87015613	      0.18972001	      9.05784804	     -0.60788136	     -7.49999987	     -7.44933758	     -0.88122712	      2.89492599	     -8.21178677	    -10.09584202	      4.30927433	     39.35441883	     83.93441774	     -8.69308721	    -11.38840461	      4.84081063	     44.78168402	     93.45429954
      5.12500000	     -7.50747517	      0.04025475	      2.83402618	      0.35033957	      1.08013378	     -0.07082405	      8.63873378	     -2.61276171	     -5.07789746	      9.11491434	      0.15908527	      7.88321875	     -7.24162098	     -7.49999987	      8.52751821	     -2.51539739	     -1.93936002	     10.79219351	      0.18835931	      8.94714722	     -0.53359202	     -7.49999987	     -7.69865771	     -0.89906574	      2.81543151	     -8.16943479	    -10.07659476	      4.39864211	     39.17670193	     81.82065686	     -8.65824272	    -11.44542948	      4.98194662	     44.47137704	     91.01779612
      5.12916670	     -7.31119091	      0.05495041	      2.84117017	      0.35162097	      1.08185832	     -0.07172138	      8.34205205	     -2.63122346	     -5.15390534	      9.01465254	      0.15733537	      7.78962988	     -7.20708650	     -7.49999987	      8.24555790	     -2.49940898	     -1.89932523	     10.71450563	      0.18700340	      8.83513245	     -0.56149293	     -7.49999987	     -7.88954884	     -0.88640141	      2.73226609	     -8.13072445	    -10.11769501	      4.60013071	     38.88824205	     80.38764814	     -8.66068938	    -11.52295671	      5.28431550	     44.05513915	     89.26789013
      5.13333330	     -7.20633128	      0.06708822	      2.81856503	      0.35010782	      1.08320351	     -0.07133249	      8.18884749	     -2.63846222	     -5.27747393	      8.91848184	      0.15565687	      7.72205746	     -7.06116334	     -7.49999987	      8.06597668	     -2.48945908	     -1.94672493	     10.59796526	      0.18496939	      8.72427883	     -0.49447880	     -7.49999987	     -8.00606998	     -0.88022667	      2.74091577	     -8.10895721	    -10.13193197	      4.33041970	     38.60015492	     83.87327929	     -8.59793592	    -11.56755037	      5.25889085	     43.63085652	     92.32959904
      5.13750000	     -7.02782315	      0.09158663	      2.85135812	      0.34897450	      1.08022849	     -0.07249968	      7.98043188	     -2.66943236	     -5.31962873	      8.87118039	      0.15483131	      7.64574729	     -7.15568493	     -7.49999987	      7.85360444	     -2.45104452	     -1.94472859	     10.55268904	      0.18417917	      8.71355629	     -0.50621666	     -7.49999987	     -8.25163276	     -0.87424231	      2.66907834	     -8.07871924	    -10.17831786	      4.41454790	     38.46010434	     81.79692261	     -8.58859153	    -11.57323511	      5.44349959	     43.38440252	     89.75265352
      5.14166670	     -7.04879936	      0.09237927	      2.85579722	      0.34888842	      1.07295100	     -0.07134638	      8.11564280	     -2.67522781	     -5.32468577	      9.07012047	      0.15830347	      7.79852917	     -7.33200851	     -7.49999987	      7.95418963	     -2.44621041	     -1.90812475	     10.68878608	      0.18655451	      8.89514729	     -0.58318335	     -7.49999987	     -8.20402352	     -0.87330727	      2.61607721	     -8.12819435	    -10.34668821	      4.78106730	     38.35423709	     81.98130371	     -8.63606955	    -11.78195704	      5.97269243	     43.18643650	     89.82444904
